<?xml version="1.0" encoding="UTF-8"?>
<svg xmlns="http://www.w3.org/2000/svg" xmlns:xlink="http://www.w3.org/1999/xlink" width="30px" height="30px" viewBox="0 0 30 30" version="1.1">
<g id="surface1">
<path style=" stroke:none;fill-rule:nonzero;fill:rgb(0%,46.666667%,71.764706%);fill-opacity:1;" d="M 2.90625 -0.0195312 C 3.066406 -0.0195312 3.066406 -0.0195312 3.230469 -0.0195312 C 3.589844 -0.0195312 3.949219 -0.0234375 4.308594 -0.0234375 C 4.566406 -0.0234375 4.820312 -0.0234375 5.078125 -0.0273438 C 5.925781 -0.0273438 6.769531 -0.03125 7.613281 -0.03125 C 7.90625 -0.03125 8.195312 -0.0351562 8.488281 -0.0351562 C 9.695312 -0.0351562 10.90625 -0.0390625 12.117188 -0.0390625 C 12.429688 -0.0390625 12.746094 -0.0390625 13.058594 -0.0429688 C 13.136719 -0.0429688 13.214844 -0.0429688 13.296875 -0.0429688 C 14.558594 -0.0429688 15.820312 -0.046875 17.085938 -0.0507812 C 18.382812 -0.0546875 19.679688 -0.0585938 20.976562 -0.0585938 C 21.707031 -0.0585938 22.433594 -0.0625 23.164062 -0.0664062 C 23.847656 -0.0703125 24.535156 -0.0703125 25.21875 -0.0703125 C 25.46875 -0.0703125 25.722656 -0.0703125 25.972656 -0.0703125 C 26.316406 -0.0742188 26.660156 -0.0742188 27.003906 -0.0703125 C 27.101562 -0.0742188 27.203125 -0.0742188 27.304688 -0.078125 C 28.148438 -0.0664062 28.828125 0.238281 29.433594 0.835938 C 29.484375 0.914062 29.535156 0.988281 29.589844 1.070312 C 29.644531 1.148438 29.699219 1.226562 29.753906 1.304688 C 30.054688 1.820312 30.019531 2.332031 30.019531 2.90625 C 30.019531 3.011719 30.019531 3.121094 30.019531 3.230469 C 30.019531 3.589844 30.023438 3.949219 30.023438 4.308594 C 30.023438 4.566406 30.023438 4.820312 30.027344 5.078125 C 30.027344 5.925781 30.03125 6.769531 30.03125 7.613281 C 30.03125 7.90625 30.035156 8.195312 30.035156 8.488281 C 30.035156 9.695312 30.039062 10.90625 30.039062 12.117188 C 30.039062 12.429688 30.039062 12.746094 30.042969 13.058594 C 30.042969 13.136719 30.042969 13.214844 30.042969 13.296875 C 30.042969 14.558594 30.046875 15.820312 30.050781 17.085938 C 30.054688 18.382812 30.058594 19.679688 30.058594 20.976562 C 30.058594 21.707031 30.0625 22.433594 30.066406 23.164062 C 30.070312 23.847656 30.070312 24.535156 30.070312 25.21875 C 30.070312 25.46875 30.070312 25.722656 30.070312 25.972656 C 30.074219 26.316406 30.074219 26.660156 30.070312 27.003906 C 30.074219 27.101562 30.074219 27.203125 30.078125 27.304688 C 30.066406 28.148438 29.761719 28.828125 29.164062 29.433594 C 29.085938 29.484375 29.011719 29.535156 28.929688 29.589844 C 28.851562 29.644531 28.773438 29.699219 28.695312 29.753906 C 28.179688 30.054688 27.667969 30.019531 27.09375 30.019531 C 26.988281 30.019531 26.878906 30.019531 26.769531 30.019531 C 26.410156 30.019531 26.050781 30.023438 25.691406 30.023438 C 25.433594 30.023438 25.179688 30.023438 24.921875 30.027344 C 24.074219 30.027344 23.230469 30.03125 22.386719 30.03125 C 22.09375 30.03125 21.804688 30.035156 21.511719 30.035156 C 20.304688 30.035156 19.09375 30.039062 17.882812 30.039062 C 17.570312 30.039062 17.253906 30.039062 16.941406 30.042969 C 16.863281 30.042969 16.785156 30.042969 16.703125 30.042969 C 15.441406 30.042969 14.179688 30.046875 12.914062 30.050781 C 11.617188 30.054688 10.320312 30.058594 9.023438 30.058594 C 8.292969 30.058594 7.566406 30.0625 6.835938 30.066406 C 6.152344 30.070312 5.464844 30.070312 4.78125 30.070312 C 4.53125 30.070312 4.277344 30.070312 4.027344 30.070312 C 3.683594 30.074219 3.339844 30.074219 2.996094 30.070312 C 2.898438 30.074219 2.796875 30.074219 2.695312 30.078125 C 1.851562 30.066406 1.171875 29.761719 0.566406 29.164062 C 0.515625 29.085938 0.464844 29.011719 0.410156 28.929688 C 0.355469 28.851562 0.300781 28.773438 0.246094 28.695312 C -0.0546875 28.179688 -0.0195312 27.667969 -0.0195312 27.09375 C -0.0195312 26.988281 -0.0195312 26.878906 -0.0195312 26.769531 C -0.0195312 26.410156 -0.0234375 26.050781 -0.0234375 25.691406 C -0.0234375 25.433594 -0.0234375 25.179688 -0.0273438 24.921875 C -0.0273438 24.074219 -0.03125 23.230469 -0.03125 22.386719 C -0.03125 22.09375 -0.0351562 21.804688 -0.0351562 21.511719 C -0.0351562 20.304688 -0.0390625 19.09375 -0.0390625 17.882812 C -0.0390625 17.570312 -0.0390625 17.253906 -0.0429688 16.941406 C -0.0429688 16.863281 -0.0429688 16.785156 -0.0429688 16.703125 C -0.0429688 15.441406 -0.046875 14.179688 -0.0507812 12.914062 C -0.0546875 11.617188 -0.0585938 10.320312 -0.0585938 9.023438 C -0.0585938 8.292969 -0.0625 7.566406 -0.0664062 6.835938 C -0.0703125 6.152344 -0.0703125 5.464844 -0.0703125 4.78125 C -0.0703125 4.53125 -0.0703125 4.277344 -0.0703125 4.027344 C -0.0742188 3.683594 -0.0742188 3.339844 -0.0703125 2.996094 C -0.0742188 2.898438 -0.0742188 2.796875 -0.078125 2.695312 C -0.0664062 1.851562 0.238281 1.171875 0.835938 0.566406 C 0.914062 0.515625 0.988281 0.464844 1.070312 0.410156 C 1.148438 0.355469 1.226562 0.300781 1.304688 0.246094 C 1.820312 -0.0546875 2.332031 -0.0195312 2.90625 -0.0195312 Z M 4.175781 4.746094 C 3.699219 5.476562 3.582031 6.191406 3.683594 7.054688 C 3.890625 8.035156 4.472656 8.6875 5.273438 9.257812 C 5.988281 9.671875 6.683594 9.71875 7.5 9.609375 C 8.511719 9.269531 9.191406 8.65625 9.726562 7.734375 C 10.121094 6.652344 9.960938 5.828125 9.492188 4.804688 C 9.066406 4.0625 8.289062 3.660156 7.5 3.398438 C 6.085938 3.246094 5.078125 3.636719 4.175781 4.746094 Z M 16.808594 12.523438 C 16.667969 12.707031 16.667969 12.707031 16.523438 12.890625 C 16.515625 12.757812 16.515625 12.757812 16.511719 12.625 C 16.503906 12.507812 16.496094 12.394531 16.488281 12.277344 C 16.480469 12.160156 16.472656 12.046875 16.464844 11.929688 C 16.394531 11.546875 16.335938 11.402344 16.054688 11.132812 C 15.734375 11.085938 15.457031 11.070312 15.136719 11.074219 C 15.046875 11.074219 14.957031 11.074219 14.863281 11.074219 C 14.675781 11.074219 14.484375 11.074219 14.296875 11.078125 C 14.003906 11.082031 13.714844 11.082031 13.425781 11.078125 C 13.242188 11.078125 13.054688 11.082031 12.871094 11.082031 C 12.785156 11.082031 12.699219 11.082031 12.609375 11.082031 C 12.15625 11.082031 12.15625 11.082031 11.753906 11.273438 C 11.550781 11.554688 11.558594 11.738281 11.558594 12.085938 C 11.554688 12.210938 11.554688 12.332031 11.554688 12.460938 C 11.554688 12.597656 11.554688 12.734375 11.554688 12.875 C 11.554688 13.019531 11.554688 13.160156 11.554688 13.308594 C 11.554688 13.703125 11.554688 14.097656 11.554688 14.488281 C 11.554688 14.902344 11.554688 15.3125 11.554688 15.726562 C 11.554688 16.417969 11.554688 17.109375 11.554688 17.800781 C 11.558594 18.601562 11.558594 19.398438 11.554688 20.199219 C 11.554688 20.886719 11.554688 21.574219 11.554688 22.257812 C 11.554688 22.667969 11.554688 23.078125 11.554688 23.488281 C 11.550781 23.945312 11.554688 24.402344 11.554688 24.859375 C 11.554688 24.996094 11.554688 25.132812 11.554688 25.273438 C 11.554688 25.398438 11.554688 25.523438 11.558594 25.648438 C 11.558594 25.757812 11.558594 25.867188 11.558594 25.976562 C 11.582031 26.253906 11.582031 26.253906 11.753906 26.460938 C 12.089844 26.699219 12.476562 26.652344 12.871094 26.652344 C 13.007812 26.652344 13.007812 26.652344 13.144531 26.652344 C 13.332031 26.65625 13.523438 26.65625 13.710938 26.652344 C 14.003906 26.652344 14.292969 26.65625 14.582031 26.660156 C 14.765625 26.660156 14.953125 26.660156 15.136719 26.660156 C 15.265625 26.660156 15.265625 26.660156 15.398438 26.664062 C 15.871094 26.664062 15.871094 26.664062 16.253906 26.414062 C 16.457031 26.039062 16.449219 25.761719 16.453125 25.335938 C 16.453125 25.253906 16.453125 25.175781 16.453125 25.09375 C 16.453125 24.921875 16.453125 24.75 16.453125 24.578125 C 16.453125 24.304688 16.457031 24.03125 16.457031 23.757812 C 16.460938 23.179688 16.464844 22.597656 16.464844 22.015625 C 16.464844 21.34375 16.46875 20.675781 16.472656 20.003906 C 16.476562 19.738281 16.476562 19.46875 16.476562 19.203125 C 16.480469 17.914062 16.613281 16.730469 17.460938 15.703125 C 18.25 15.089844 18.945312 15.027344 19.921875 15.117188 C 20.542969 15.300781 20.992188 15.609375 21.328125 16.171875 C 21.761719 17.164062 21.730469 18.144531 21.730469 19.207031 C 21.734375 19.398438 21.734375 19.589844 21.734375 19.78125 C 21.742188 20.28125 21.742188 20.785156 21.746094 21.285156 C 21.746094 22.089844 21.753906 22.894531 21.757812 23.695312 C 21.761719 23.976562 21.761719 24.257812 21.761719 24.535156 C 21.761719 24.707031 21.765625 24.878906 21.765625 25.050781 C 21.765625 25.277344 21.765625 25.277344 21.765625 25.503906 C 21.796875 25.886719 21.855469 26.148438 22.03125 26.484375 C 22.394531 26.664062 22.777344 26.621094 23.171875 26.621094 C 23.261719 26.621094 23.351562 26.621094 23.445312 26.621094 C 23.636719 26.621094 23.824219 26.625 24.015625 26.625 C 24.308594 26.625 24.597656 26.625 24.890625 26.628906 C 25.074219 26.628906 25.257812 26.628906 25.445312 26.628906 C 25.574219 26.628906 25.574219 26.628906 25.707031 26.632812 C 26.148438 26.628906 26.34375 26.617188 26.71875 26.367188 C 26.851562 25.972656 26.851562 25.675781 26.851562 25.261719 C 26.851562 25.183594 26.855469 25.105469 26.855469 25.027344 C 26.855469 24.777344 26.855469 24.523438 26.855469 24.269531 C 26.855469 24.089844 26.855469 23.914062 26.855469 23.734375 C 26.859375 23.363281 26.859375 22.988281 26.859375 22.613281 C 26.859375 22.234375 26.859375 21.855469 26.859375 21.476562 C 27.082031 16.75 27.082031 16.75 25.3125 12.539062 C 25.25 12.464844 25.191406 12.390625 25.125 12.3125 C 24.339844 11.449219 23.25 10.976562 22.089844 10.871094 C 20.09375 10.785156 18.207031 10.917969 16.808594 12.523438 Z M 4.605469 11.273438 C 4.402344 11.554688 4.410156 11.738281 4.410156 12.085938 C 4.40625 12.210938 4.40625 12.332031 4.40625 12.460938 C 4.40625 12.597656 4.40625 12.734375 4.40625 12.875 C 4.40625 13.019531 4.40625 13.160156 4.40625 13.308594 C 4.40625 13.703125 4.40625 14.097656 4.40625 14.488281 C 4.40625 14.902344 4.40625 15.3125 4.40625 15.726562 C 4.40625 16.417969 4.40625 17.109375 4.40625 17.800781 C 4.410156 18.601562 4.410156 19.398438 4.40625 20.199219 C 4.40625 20.886719 4.40625 21.574219 4.40625 22.257812 C 4.40625 22.667969 4.40625 23.078125 4.40625 23.488281 C 4.402344 23.945312 4.40625 24.402344 4.40625 24.859375 C 4.40625 24.996094 4.40625 25.132812 4.40625 25.273438 C 4.40625 25.398438 4.40625 25.523438 4.410156 25.648438 C 4.410156 25.757812 4.410156 25.867188 4.410156 25.976562 C 4.433594 26.253906 4.433594 26.253906 4.605469 26.460938 C 4.9375 26.695312 5.308594 26.652344 5.699219 26.648438 C 5.785156 26.648438 5.871094 26.648438 5.960938 26.648438 C 6.144531 26.648438 6.332031 26.648438 6.515625 26.648438 C 6.796875 26.644531 7.078125 26.648438 7.359375 26.648438 C 7.539062 26.648438 7.714844 26.648438 7.894531 26.648438 C 8.023438 26.648438 8.023438 26.648438 8.152344 26.652344 C 8.613281 26.644531 8.613281 26.644531 9.011719 26.4375 C 9.25 26.085938 9.273438 25.867188 9.273438 25.449219 C 9.273438 25.328125 9.273438 25.207031 9.273438 25.085938 C 9.273438 24.953125 9.273438 24.820312 9.273438 24.683594 C 9.273438 24.546875 9.277344 24.40625 9.277344 24.261719 C 9.277344 23.882812 9.277344 23.5 9.277344 23.121094 C 9.277344 22.800781 9.277344 22.484375 9.277344 22.167969 C 9.28125 21.414062 9.28125 20.664062 9.28125 19.914062 C 9.28125 19.140625 9.28125 18.367188 9.28125 17.59375 C 9.285156 16.929688 9.285156 16.265625 9.285156 15.601562 C 9.285156 15.203125 9.285156 14.804688 9.285156 14.410156 C 9.289062 13.964844 9.285156 13.523438 9.285156 13.082031 C 9.285156 12.949219 9.289062 12.816406 9.289062 12.683594 C 9.289062 12.5625 9.289062 12.441406 9.285156 12.316406 C 9.285156 12.210938 9.285156 12.105469 9.285156 12 C 9.253906 11.695312 9.1875 11.507812 9.023438 11.25 C 8.667969 11.070312 8.296875 11.109375 7.90625 11.109375 C 7.820312 11.109375 7.730469 11.109375 7.640625 11.105469 C 7.457031 11.105469 7.273438 11.105469 7.089844 11.105469 C 6.804688 11.105469 6.523438 11.101562 6.242188 11.097656 C 6.0625 11.09375 5.882812 11.09375 5.703125 11.09375 C 5.617188 11.09375 5.53125 11.089844 5.445312 11.089844 C 5 11.085938 5 11.085938 4.605469 11.273438 Z M 4.605469 11.273438 "/>
</g>
</svg>
