<?xml version="1.0" encoding="UTF-8"?>
<svg xmlns="http://www.w3.org/2000/svg" xmlns:xlink="http://www.w3.org/1999/xlink" width="30px" height="30px" viewBox="0 0 30 30" version="1.1">
<g id="surface1">
<path style=" stroke:none;fill-rule:nonzero;fill:rgb(0%,0%,0%);fill-opacity:1;" d="M 3.207031 0.292969 C 2.125 0.414062 1.101562 1.128906 0.617188 2.105469 C 0.199219 2.953125 0.21875 2.027344 0.238281 15.175781 L 0.253906 26.972656 L 0.390625 27.339844 C 0.59375 27.90625 0.835938 28.289062 1.242188 28.6875 C 1.65625 29.101562 1.980469 29.304688 2.597656 29.515625 L 3.019531 29.667969 L 26.96875 29.667969 L 27.390625 29.539062 C 27.988281 29.355469 28.375 29.117188 28.832031 28.660156 C 29.113281 28.382812 29.289062 28.140625 29.433594 27.84375 C 29.847656 27.019531 29.820312 27.980469 29.820312 15.011719 C 29.820312 7.421875 29.796875 3.222656 29.761719 3.027344 C 29.542969 1.863281 28.691406 0.863281 27.542969 0.4375 L 27.191406 0.308594 L 15.390625 0.28125 C 8.902344 0.265625 3.417969 0.269531 3.207031 0.292969 Z M 10.492188 5.367188 L 10.929688 5.40625 L 11.355469 5.972656 C 11.59375 6.289062 12.734375 7.804688 13.894531 9.347656 C 15.050781 10.890625 16.027344 12.1875 16.066406 12.226562 C 16.117188 12.28125 16.59375 11.8125 18.445312 9.8125 C 19.714844 8.449219 20.9375 7.140625 21.15625 6.90625 C 21.375 6.675781 21.792969 6.226562 22.085938 5.90625 L 22.617188 5.332031 L 23.464844 5.355469 C 23.929688 5.367188 24.324219 5.382812 24.328125 5.382812 C 24.371094 5.394531 24.054688 5.742188 23.070312 6.792969 C 22.535156 7.367188 21.097656 8.902344 19.878906 10.21875 C 18.660156 11.53125 17.496094 12.777344 17.296875 12.984375 C 17.078125 13.214844 16.953125 13.394531 16.980469 13.433594 C 17.023438 13.5 19.765625 17.15625 23.308594 21.859375 C 24.402344 23.3125 25.300781 24.519531 25.300781 24.542969 C 25.300781 24.570312 23.929688 24.589844 22.257812 24.589844 L 19.214844 24.589844 L 16.382812 20.828125 C 14.832031 18.753906 13.542969 17.066406 13.53125 17.066406 C 13.519531 17.066406 13.027344 17.578125 12.449219 18.207031 C 11.859375 18.828125 11.25 19.480469 11.09375 19.648438 C 10.933594 19.816406 9.832031 21 8.644531 22.269531 L 6.488281 24.589844 L 5.613281 24.589844 C 5.128906 24.589844 4.742188 24.566406 4.753906 24.539062 C 4.765625 24.515625 5.699219 23.5 6.832031 22.28125 C 7.96875 21.070312 9.074219 19.882812 9.289062 19.648438 C 9.511719 19.414062 10.308594 18.554688 11.0625 17.734375 C 11.820312 16.917969 12.503906 16.183594 12.582031 16.101562 L 12.71875 15.949219 L 10.949219 13.601562 C 9.980469 12.3125 8.199219 9.949219 6.992188 8.347656 C 5.78125 6.746094 4.8125 5.417969 4.828125 5.390625 C 4.867188 5.328125 9.84375 5.3125 10.492188 5.367188 Z M 10.492188 5.367188 "/>
<path style=" stroke:none;fill-rule:nonzero;fill:rgb(0%,0%,0%);fill-opacity:1;" d="M 7.554688 6.886719 C 7.714844 7.097656 11.835938 12.570312 17.246094 19.773438 L 19.851562 23.234375 L 21.25 23.242188 C 22.019531 23.242188 22.648438 23.230469 22.648438 23.214844 C 22.648438 23.203125 21.054688 21.070312 19.105469 18.484375 C 17.15625 15.898438 14.363281 12.183594 12.894531 10.226562 L 10.222656 6.679688 L 7.386719 6.679688 Z M 7.554688 6.886719 "/>
</g>
</svg>
